<svg width="20" height="21" viewBox="0 0 20 21" fill="none" xmlns="http://www.w3.org/2000/svg">
<path fill-rule="evenodd" clip-rule="evenodd" d="M10 0.171875C4.47837 0.171875 0.00219727 4.64804 0.00219727 10.1697C0.00219727 15.6913 4.47837 20.1675 10 20.1675C15.5216 20.1675 19.9978 15.6913 19.9978 10.1697C19.9978 4.64804 15.5216 0.171875 10 0.171875ZM10.7499 9.242C10.7499 9.35303 10.8399 9.44304 10.9509 9.44304H13.68C14.0998 9.44304 14.4402 9.7834 14.4402 10.2033C14.4402 10.6231 14.0998 10.9635 13.68 10.9635H10.9512C10.84 10.9635 10.7499 11.0536 10.7499 11.1648V13.8276C10.7499 14.2476 10.4093 14.5881 9.98931 14.5881C9.56927 14.5881 9.22876 14.2476 9.22876 13.8276V11.1648C9.22876 11.0536 9.13861 10.9635 9.02739 10.9635H6.33181C5.91195 10.9635 5.57159 10.6231 5.57159 10.2033C5.57159 9.7834 5.91195 9.44304 6.33181 9.44304H9.02772C9.13875 9.44304 9.22876 9.35303 9.22876 9.242V6.58477C9.22876 6.16473 9.56927 5.82422 9.98931 5.82422C10.4094 5.82422 10.7499 6.16473 10.7499 6.58477V9.242Z" fill="white"/>
</svg>
