<svg width="16" height="16" viewBox="0 0 16 16" fill="none" xmlns="http://www.w3.org/2000/svg">
<path d="M7.99992 14.6742C11.6818 14.6742 14.6666 11.6894 14.6666 8.00749C14.6666 4.32559 11.6818 1.34082 7.99992 1.34082C4.31802 1.34082 1.33325 4.32559 1.33325 8.00749C1.33325 11.6894 4.31802 14.6742 7.99992 14.6742ZM7.99992 4.84082C8.36811 4.84082 8.66659 5.1393 8.66659 5.50749V7.34082H10.4999C10.8681 7.34082 11.1666 7.6393 11.1666 8.00749C11.1666 8.37568 10.8681 8.67415 10.4999 8.67415H8.66659V10.5075C8.66659 10.8757 8.36811 11.1742 7.99992 11.1742C7.63173 11.1742 7.33325 10.8757 7.33325 10.5075V8.67415H5.49992C5.13173 8.67415 4.83325 8.37568 4.83325 8.00749C4.83325 7.6393 5.13173 7.34082 5.49992 7.34082H7.33325V5.50749C7.33325 5.1393 7.63173 4.84082 7.99992 4.84082Z" fill="#505153"/>
</svg>
  