<svg width="19" height="18" viewBox="0 0 19 18" fill="none" xmlns="http://www.w3.org/2000/svg">
<path d="M14.4646 14.0049H17.7066" stroke="#1C1F23" stroke-width="1.25" stroke-linecap="round" stroke-linejoin="round"/>
<path d="M4.83032 0.962891C4.83032 0.617713 4.5505 0.337891 4.20532 0.337891C3.86014 0.337891 3.58032 0.617713 3.58032 0.962891H4.83032ZM12.0087 14.631C12.3539 14.631 12.6337 14.3512 12.6337 14.006C12.6337 13.6608 12.3539 13.381 12.0087 13.381V14.631ZM3.58032 0.962891V12.3393H4.83032V0.962891H3.58032ZM5.87199 14.631H12.0087V13.381H5.87199V14.631ZM3.58032 12.3393C3.58032 13.605 4.60634 14.631 5.87199 14.631V13.381C5.29669 13.381 4.83032 12.9146 4.83032 12.3393H3.58032Z" fill="#1C1F23"/>
<path d="M4.20524 3.99127H0.963257" stroke="#1C1F23" stroke-width="1.25" stroke-linecap="round" stroke-linejoin="round"/>
<path d="M13.8395 17.0353C13.8395 17.3805 14.1194 17.6603 14.4645 17.6603C14.8097 17.6603 15.0895 17.3805 15.0895 17.0353H13.8395ZM6.66113 3.36719C6.31595 3.36719 6.03613 3.64701 6.03613 3.99219C6.03613 4.33737 6.31595 4.61719 6.66113 4.61719V3.36719ZM15.0895 17.0353V5.65885H13.8395V17.0353H15.0895ZM12.7979 3.36719H6.66113V4.61719H12.7979V3.36719ZM15.0895 5.65885C15.0895 4.3932 14.0635 3.36719 12.7979 3.36719V4.61719C13.3732 4.61719 13.8395 5.08356 13.8395 5.65885H15.0895Z" fill="#1C1F23"/>
</svg>
