<svg width="16" height="16" viewBox="0 0 16 16" fill="none" xmlns="http://www.w3.org/2000/svg">
<path d="M4.49385 4.49409C4.7542 4.23374 5.17631 4.23374 5.43666 4.49409L8 7.05744L10.5633 4.49409C10.8237 4.23374 11.2458 4.23374 11.5062 4.49409C11.7665 4.75444 11.7665 5.17655 11.5062 5.4369L8.94281 8.00024L11.5062 10.5636C11.7665 10.8239 11.7665 11.246 11.5062 11.5064C11.2458 11.7667 10.8237 11.7667 10.5633 11.5064L8 8.94305L5.43666 11.5064C5.17631 11.7667 4.7542 11.7667 4.49385 11.5064C4.2335 11.246 4.2335 10.8239 4.49385 10.5636L7.05719 8.00024L4.49385 5.4369C4.2335 5.17655 4.2335 4.75444 4.49385 4.49409Z" fill="#8A8E91"/>
</svg>  