<svg width="16" height="16" viewBox="0 0 16 16" fill="none" xmlns="http://www.w3.org/2000/svg">
<path fill-rule="evenodd" clip-rule="evenodd" d="M6 0.708984H3.00004C1.73439 0.708984 0.708374 1.735 0.708374 3.00065V6H1.95837V3.00065C1.95837 2.42535 2.42474 1.95898 3.00004 1.95898H6V0.708984ZM6 14.0423H3.00004C2.42474 14.0423 1.95837 13.5759 1.95837 13.0007V10H0.708374V13.0007C0.708374 14.2663 1.73439 15.2923 3.00004 15.2923H6V14.0423ZM10 15.2923V14.0423H13C13.5753 14.0423 14.0417 13.5759 14.0417 13.0007V10H15.2917V13.0007C15.2917 14.2663 14.2657 15.2923 13 15.2923H10ZM10 1.95898V0.708984H13C14.2657 0.708984 15.2917 1.735 15.2917 3.00065V6H14.0417V3.00065C14.0417 2.42535 13.5753 1.95898 13 1.95898H10Z" fill="#1C1F23"/>
</svg>
