<svg width="16" height="16" viewBox="0 0 16 16" fill="none" xmlns="http://www.w3.org/2000/svg">
<rect width="16" height="16" rx="8" fill="#298DFF"/>
<path d="M11.742 9.47877C11.742 9.75491 11.5181 9.97877 11.242 9.97877C10.9658 9.97877 10.742 9.75491 10.742 9.47877L10.742 6.00767L5.10648 11.6432C4.91122 11.8384 4.59464 11.8384 4.39938 11.6432C4.20411 11.4479 4.20411 11.1313 4.39938 10.9361L10.071 5.2644L6.52763 5.26441C6.25148 5.26441 6.02763 5.04055 6.02763 4.7644C6.02763 4.48826 6.25148 4.2644 6.52763 4.2644H11.242C11.5181 4.2644 11.742 4.48826 11.742 4.7644L11.742 9.47877Z" fill="white"/>
</svg>
  