<svg t="1665222546932" class="icon" viewBox="0 0 1024 1024" version="1.1" xmlns="http://www.w3.org/2000/svg" p-id="6940" width="200" height="200"><path d="M938.624 257.962667c0 270.506667-219.392 489.898667-489.856 489.898666H276.053333v-172.672C276.053333 304.682667 495.445333 85.333333 765.994667 85.333333h172.629333v172.629334z" p-id="6941" fill="#FFFFFF"></path><path d="M420.821333 798.634667c208.469333 0 389.888-116.906667 483.157334-289.109334 22.485333 64.810667 34.688 134.4 34.688 206.848V938.666667h-222.378667c-150.101333 0-288-52.437333-396.373333-140.032h100.906666zM226.986667 603.434667v102.656A628.352 628.352 0 0 1 85.333333 307.712v-222.293333h222.378667c70.997333 0 139.306667 11.733333 203.008 33.365333a554.282667 554.282667 0 0 0-283.733333 484.693333z" p-id="6942" fill="#FFFFFF"></path></svg>