<svg width="16" height="15" viewBox="0 0 16 15" fill="none" xmlns="http://www.w3.org/2000/svg">
<path fill-rule="evenodd" clip-rule="evenodd" d="M0 1C0 0.447715 0.447715 0 1 0H15C15.5523 0 16 0.447715 16 1V11C16 11.5523 15.5523 12 15 12H10.5981L8.75594 14.1271C8.35716 14.5876 7.64285 14.5876 7.24408 14.1271L5.40193 12H1C0.447715 12 0 11.5523 0 11V1ZM4 7C4.55228 7 5 6.55228 5 6C5 5.44772 4.55228 5 4 5C3.44772 5 3 5.44772 3 6C3 6.55228 3.44772 7 4 7ZM9 6C9 6.55228 8.55229 7 8 7C7.44772 7 7 6.55228 7 6C7 5.44772 7.44772 5 8 5C8.55229 5 9 5.44772 9 6ZM12 7C12.5523 7 13 6.55228 13 6C13 5.44772 12.5523 5 12 5C11.4477 5 11 5.44772 11 6C11 6.55228 11.4477 7 12 7Z" fill="#8A8E91"/>
</svg>
