<svg width="24" height="24" viewBox="0 0 24 24" fill="none" xmlns="http://www.w3.org/2000/svg">
<rect x="3" y="4" width="18" height="16" rx="2" stroke="#1C1F23" stroke-width="1.5" stroke-linecap="round" stroke-linejoin="round"/>
<path fill-rule="evenodd" clip-rule="evenodd" d="M18.3589 9.19885C18.3589 10.0516 17.6671 10.7434 16.8143 10.7434C15.9615 10.7434 15.2698 10.0516 15.2698 9.19885C15.2698 8.34606 15.9615 7.6543 16.8143 7.6543C17.6671 7.6543 18.3589 8.34606 18.3589 9.19885Z" fill="#1C1F23"/>
<path d="M2.34808 13.3914C2.05999 13.689 2.06771 14.1638 2.36533 14.4519C2.66294 14.74 3.13775 14.7323 3.42585 14.4346L2.34808 13.3914ZM20.6199 17.0671C20.9502 17.3171 21.4206 17.2521 21.6706 16.9219C21.9206 16.5916 21.8556 16.1212 21.5253 15.8712L20.6199 17.0671ZM14.0789 14.5436L14.584 15.098L14.0789 14.5436ZM3.42585 14.4346L6.68119 11.0717L5.60342 10.0284L2.34808 13.3914L3.42585 14.4346ZM7.72231 11.0363L12.2336 15.104L13.2381 13.99L8.72678 9.92229L7.72231 11.0363ZM14.584 15.098L15.9894 13.8177L14.9792 12.7088L13.5738 13.9891L14.584 15.098ZM16.3087 13.8032L20.6199 17.0671L21.5253 15.8712L17.2141 12.6072L16.3087 13.8032ZM15.9894 13.8177C16.0785 13.7366 16.2127 13.7305 16.3087 13.8032L17.2141 12.6072C16.5419 12.0983 15.6025 12.141 14.9792 12.7088L15.9894 13.8177ZM12.2336 15.104C12.902 15.7067 13.9187 15.7041 14.584 15.098L13.5738 13.9891C13.4788 14.0757 13.3336 14.0761 13.2381 13.99L12.2336 15.104ZM6.68119 11.0717C6.96209 10.7815 7.42235 10.7658 7.72231 11.0363L8.72678 9.92229C7.82692 9.11091 6.44614 9.15782 5.60342 10.0284L6.68119 11.0717Z" fill="#1C1F23"/>
</svg>
