<svg width="16" height="16" viewBox="0 0 16 16" fill="none" xmlns="http://www.w3.org/2000/svg">
<g clip-path="url(#clip0_495_24563)">
<path d="M12.6663 8.00065L15.333 8.00065L11.9997 11.334L8.66634 8.00065L11.333 8.00065C11.333 5.79398 9.53967 4.00065 7.33301 4.00065C5.12634 4.00065 3.33301 5.79398 3.33301 8.00065C3.33301 10.2073 5.12634 12.0007 7.33301 12.0007L7.33301 13.334C4.38634 13.334 1.99968 10.9473 1.99968 8.00065C1.99968 5.05398 4.38634 2.66732 7.33301 2.66732C10.2797 2.66732 12.6663 5.05398 12.6663 8.00065Z" fill="#505153"/>
</g>
<defs>
<clipPath id="clip0_495_24563">
<rect width="16" height="16" fill="white" transform="matrix(1.19249e-08 -1 -1 -1.19249e-08 16 16)"/>
</clipPath>
</defs>
</svg>
