<svg width="17" height="14" viewBox="0 0 17 14" fill="none" xmlns="http://www.w3.org/2000/svg">
<path fill-rule="evenodd" clip-rule="evenodd" d="M14.0819 2.63845H12.2187L11.2152 1.31877C11.0524 1.10428 10.7983 0.978516 10.5295 0.978516H6.00452C5.73576 0.978516 5.48164 1.10428 5.31884 1.31877L4.31529 2.63845H2.45207C1.50107 2.63845 0.729248 3.41027 0.729248 4.36127V11.4748C0.729248 12.4266 1.50107 13.1976 2.45207 13.1976H14.0819C15.0329 13.1976 15.8048 12.4266 15.8048 11.4748V4.36127C15.8048 3.41027 15.0329 2.63845 14.0819 2.63845Z" stroke="#1C1F23" stroke-width="1.25" stroke-linecap="round" stroke-linejoin="round"/>
<path fill-rule="evenodd" clip-rule="evenodd" d="M5.0127 7.15675C5.0127 5.35985 6.46934 3.90234 8.2671 3.90234C10.064 3.90234 11.5215 5.35985 11.5215 7.15675C11.5215 8.95365 10.064 10.4103 8.2671 10.4103C6.46934 10.4103 5.0127 8.95365 5.0127 7.15675Z" stroke="#1C1F23" stroke-width="1.25" stroke-linecap="round" stroke-linejoin="round"/>
</svg>
