<svg width="81" height="24" viewBox="0 0 81 24" fill="none" xmlns="http://www.w3.org/2000/svg">
<g clip-path="url(#clip0_478_22652)">
<path d="M0 6.25307C0 16.054 7.94674 24 17.7461 24H24V17.7469C24 7.94601 16.0533 0 6.25388 0H0V6.25307Z" fill="url(#paint0_linear_478_22652)"/>
<path d="M10.2164 18.75C17.8198 18.75 23.9862 12.4254 23.9862 4.84035V0H19.1334C11.5288 0 5.25 6.15053 5.25 13.7345V18.75H10.2164Z" fill="url(#paint1_linear_478_22652)"/>
</g>
<g clip-path="url(#clip1_478_22652)">
<path d="M80.5714 11.7732V10.2614H77.9975C78.5314 8.59842 78.9794 6.89764 79.3226 5.17795L77.8927 4.70551L77.3493 7.55906C77.1205 8.59842 76.9013 9.50551 76.6725 10.2709H72.7449V11.7827H75.7382V15.7417H73.2883V17.2819H75.7382V23.7921H77.3207V17.2819H80.314V15.7417H77.3207V11.7827H80.5714V11.7732ZM58.5408 9.97795L59.8659 9.59055C59.6752 8.09764 59.3702 6.52913 58.9507 4.87559L57.7019 5.26299C58.0356 6.75591 58.312 8.33386 58.5408 9.97795ZM72.0395 8.73071C71.9823 7.37953 71.9632 5.31968 71.9632 2.55118L72.7735 2.39055C72.8974 2.37165 72.9928 2.34331 73.0881 2.31496L72.5924 0.850394C70.3235 1.38898 67.7401 1.82362 64.8421 2.15433V6.52913C64.8421 7.50236 64.8326 8.34331 64.8135 9.06142C64.8135 9.93071 64.7944 10.715 64.7658 11.4331C64.68 13.0299 64.5275 14.4472 64.3273 15.6756C63.8411 18.4535 62.8783 20.8724 61.4388 22.9228L62.7925 23.915C64.2796 21.6189 65.2711 18.9354 65.7572 15.8646C65.986 14.5134 66.129 12.926 66.1958 11.1213C66.2434 10.337 66.272 9.45827 66.272 8.48504C66.2911 7.68189 66.3006 6.72756 66.3006 5.62205V3.43937L67.5494 3.27874L67.578 21.8079L66.9107 21.9213C66.9107 21.9213 67.0156 22.611 67.0919 23.1591C67.6257 23.0646 69.9231 22.3559 70.4665 22.0819C70.5523 22.5354 70.6476 22.9228 70.7239 23.5559L71.9727 23.1402C71.9727 23.1402 70.8288 18.9449 70.5523 18L69.6467 18.2362C69.9422 19.4173 70.1424 20.2488 70.2759 20.9858C69.8183 21.2031 69.2654 21.3827 68.9984 21.4299L69.027 3.08976C69.599 3.00472 70.0947 2.91969 70.5047 2.83465C70.5714 7.64409 70.7239 11.1685 70.9432 13.4173C71.3245 17.6031 72.1443 21.0614 73.4122 23.7921L74.7087 22.9323C73.5266 20.6551 72.7449 17.3953 72.3636 13.1339C72.2015 11.537 72.0871 10.063 72.0395 8.73071ZM75.9384 3.07087H72.6877V4.55433H80.2569V3.07087H77.4446L77.2921 2.39055C77.2349 2.11654 77.1872 1.88031 77.1396 1.69134C77.0061 1.15276 76.8441 0.64252 76.6725 0.151181L75.1567 0.566929L75.6048 1.87087L75.9384 3.07087ZM64.2606 3.07087H61.6867C61.5628 2.53228 61.4388 2.05039 61.3244 1.61575C61.1719 1.03937 61.0003 0.500787 60.8287 0L59.3702 0.472441L59.8182 1.80472C59.9517 2.28661 60.0661 2.71181 60.1519 3.08031H56.9297V4.56378H64.2701V3.07087H64.2606ZM63.8697 15.4488H61.2386L61.3149 14.1732C61.334 13.8614 61.3626 13.011 61.3912 11.622H64.1462V10.1102H62.0108C62.497 8.49449 62.9069 6.84094 63.231 5.15905L61.7725 4.77165C61.4388 6.80315 61.0766 8.57953 60.6953 10.1102H56.6342V11.622H59.8373C59.8373 12.8031 59.8278 13.6157 59.8087 14.0693C59.8087 14.2772 59.7992 14.4945 59.7801 14.7213L59.7229 15.4488H56.863V16.989H59.599C59.3702 18.3213 59.0937 19.3417 58.7696 20.0315C58.3692 20.9008 57.7114 21.7323 56.7963 22.5354L58.0451 23.7827C59.0365 22.7906 59.761 21.7323 60.2281 20.6079C60.4379 20.1071 60.6095 19.5402 60.7525 18.9165C60.8764 18.3969 61.0003 17.7543 61.1147 16.989H63.8697V15.4488ZM73.4217 5.1874C73.5933 5.86772 73.7649 6.66142 73.946 7.5874L74.1558 8.83465C74.1748 8.99528 74.2034 9.1937 74.2606 9.45827C74.3083 9.75118 74.3464 9.95905 74.3655 10.0819L75.6906 9.69449C75.519 8.75906 75.3569 7.9559 75.2235 7.29449C75.0519 6.4063 74.8612 5.58425 74.6515 4.8189L73.4217 5.1874ZM47.5303 0.151181H45.862V3.25039H39.2366V0.151181H37.5683V3.25039H31.2194V4.94173H37.5683V7.55906H38.1975C37.2919 9.07087 36.2051 10.5638 34.9182 12.0378C33.7742 13.3606 32.4205 14.7307 30.8571 16.1575L32.0297 17.5181C32.7256 16.9134 33.4406 16.2142 34.1841 15.4299L36.4053 13.1528V24H38.1022V11.2535C38.636 10.3559 39.0555 9.72283 39.7514 8.26772L38.5598 7.55906H39.2366V4.95118H45.8715V7.6252H47.5398V4.95118H53.8601V3.25984H47.5398V0.151181H47.5303ZM52.2491 20.7969C52.1251 21.5244 51.801 21.9213 50.8096 21.9213H46.7867C46.2338 21.9213 45.576 21.4299 45.576 20.2205V15.789C48.7886 14.4472 51.1814 12.652 53.0784 11.074L52.1537 9.68504C51.0289 10.7433 47.8925 13.0016 45.5665 14.0126V7.6063H43.8505V14.5228L41.0193 15.4583L41.4768 16.989L43.8505 16.1858V20.7118C43.8505 22.4976 45.1566 23.4425 46.7295 23.4425H50.9812C52.1442 23.4425 53.4312 22.9701 53.679 21.3543C53.7839 20.6646 53.7839 19.7386 53.7839 19.0205L52.3635 18.2835C52.3539 19.578 52.3825 19.9937 52.2491 20.7969Z" fill="#FF5967"/>
</g>
<defs>
<linearGradient id="paint0_linear_478_22652" x1="18.76" y1="5.19085" x2="5.11006" y2="18.8052" gradientUnits="userSpaceOnUse">
<stop stop-color="#FF6673" stop-opacity="0.8"/>
<stop offset="1" stop-color="#FF598B" stop-opacity="0.24"/>
</linearGradient>
<linearGradient id="paint1_linear_478_22652" x1="23.9993" y1="3.53784e-07" x2="5.43753" y2="18.4378" gradientUnits="userSpaceOnUse">
<stop stop-color="#FF6673"/>
<stop offset="1" stop-color="#FF598B" stop-opacity="0.36"/>
</linearGradient>
<clipPath id="clip0_478_22652">
<rect width="24" height="24" fill="white"/>
</clipPath>
<clipPath id="clip1_478_22652">
<rect width="49.7143" height="24" fill="white" transform="translate(30.8571)"/>
</clipPath>
</defs>
</svg>
