<svg width="14" height="14" viewBox="0 0 14 14" fill="none" xmlns="http://www.w3.org/2000/svg">
<path d="M5.36873 8.30111C5.36873 8.6693 5.66721 8.96777 6.0354 8.96777C6.40359 8.96777 6.70207 8.6693 6.70207 8.30111V7.2373H7.76577C8.13396 7.2373 8.43243 6.93883 8.43243 6.57064C8.43243 6.20245 8.13396 5.90397 7.76577 5.90397H6.70207V4.84027C6.70207 4.47208 6.40359 4.1736 6.0354 4.1736C5.66721 4.1736 5.36873 4.47208 5.36873 4.84027V5.90397H4.30493C3.93674 5.90397 3.63827 6.20245 3.63827 6.57064C3.63827 6.93883 3.93674 7.2373 4.30493 7.2373H5.36873V8.30111Z" fill="white"/>
<path d="M0.380127 6.57031C0.380127 3.44699 2.91208 0.915039 6.0354 0.915039C9.15872 0.915039 11.6907 3.44699 11.6907 6.57031C11.6907 7.71498 11.3506 8.78022 10.766 9.6705L13.2146 11.8966C13.4871 12.1442 13.5071 12.5659 13.2595 12.8383C13.0118 13.1107 12.5902 13.1308 12.3177 12.8832L9.90754 10.6921C8.89567 11.643 7.53357 12.2256 6.0354 12.2256C2.91208 12.2256 0.380127 9.69363 0.380127 6.57031ZM6.0354 2.24837C3.64846 2.24837 1.71346 4.18337 1.71346 6.57031C1.71346 8.95725 3.64846 10.8923 6.0354 10.8923C8.42234 10.8923 10.3573 8.95725 10.3573 6.57031C10.3573 4.18337 8.42234 2.24837 6.0354 2.24837Z" fill="white"/>
</svg>
