
<svg width="40" height="40" viewBox="0 0 16 16" fill="none" xmlns="http://www.w3.org/2000/svg">
<path d="M9.998 1.33333L14 5.33333L14.0007 8.17333C13.6099 7.84908 13.1558 7.60997 12.6673 7.47133L12.6667 6H9.33333V2.66667H2.33333V13.3333H5.70667C5.78293 13.8138 5.96935 14.2702 6.25133 14.6667H1.662C1.49994 14.6667 1.34352 14.6072 1.22237 14.4996C1.10122 14.3919 1.02376 14.2436 1.00467 14.0827L1 14.0053V1.99467C1 1.66267 1.258 1.37667 1.59 1.338L1.668 1.33333H9.998Z" fill="black"/>
<path d="M7.11135 9.33333L7.80202 8.29666C7.86292 8.20539 7.94541 8.13055 8.04216 8.0788C8.13892 8.02705 8.24696 7.99998 8.35669 8H10.31C10.4197 7.99998 10.5278 8.02705 10.6245 8.0788C10.7213 8.13055 10.8038 8.20539 10.8647 8.29666L11.5554 9.33333H13.3334C13.5102 9.33333 13.6797 9.40357 13.8048 9.52859C13.9298 9.65362 14 9.82319 14 10V15.3333C14 15.5101 13.9298 15.6797 13.8048 15.8047C13.6797 15.9298 13.5102 16 13.3334 16H5.33335C5.15654 16 4.98697 15.9298 4.86195 15.8047C4.73692 15.6797 4.66669 15.5101 4.66669 15.3333V10C4.66669 9.82319 4.73692 9.65362 4.86195 9.52859C4.98697 9.40357 5.15654 9.33333 5.33335 9.33333H7.11135ZM6.00002 14.6667H12.6667V10.6667H10.842L9.95335 9.33333H8.71335L7.82469 10.6667H6.00002V14.6667ZM9.33335 14C8.97973 14 8.64059 13.8595 8.39054 13.6095C8.1405 13.3594 8.00002 13.0203 8.00002 12.6667C8.00002 12.313 8.1405 11.9739 8.39054 11.7239C8.64059 11.4738 8.97973 11.3333 9.33335 11.3333C9.68698 11.3333 10.0261 11.4738 10.2762 11.7239C10.5262 11.9739 10.6667 12.313 10.6667 12.6667C10.6667 13.0203 10.5262 13.3594 10.2762 13.6095C10.0261 13.8595 9.68698 14 9.33335 14Z" fill="black"/>
</svg>
