<svg
    t="1720145312683"
    className="icon"
    viewBox="0 0 1025 1024"
    version="1.1"
    xmlns="http://www.w3.org/2000/svg"
    p-id="15182"
    xmlns:xlink="http://www.w3.org/1999/xlink"
    width="40"
    height="40">
    <path
    d="M729.747382 68.061969l226.190905 2.558721v220.561719a34.286857 34.286857 0 0 0 68.573713 0V70.62069C1024.000256 31.728136 992.27212 0 953.379566 0h-223.632184c-18.934533 0-34.286857 15.352324-34.286856 34.286857s15.352324 33.775112 34.286856 33.775112zM300.905803 0H71.13269C32.240136 0 0.512 31.728136 0.512 70.62069v217.491254a34.286857 34.286857 0 0 0 68.573713 0l2.558721-220.049975h229.773113c18.934533 0 34.286857-15.352324 34.286857-34.286857C335.19266 15.352324 319.840336 0 300.905803 0z m-6.140929 955.426287l-226.190905-2.558721v-223.632184a34.286857 34.286857 0 0 0-68.573713 0v223.632184c0 38.892554 31.728136 70.62069 70.62069 70.62069h223.632183c18.934533 0 34.286857-15.352324 34.286857-34.286857s-14.84058-33.775112-33.775112-33.775112z m694.948525-266.618691c-18.934533 0-34.286857 15.352324-34.286856 34.286857l-2.558721 232.331834h-217.491254a34.286857 34.286857 0 0 0 0 68.573713h217.491254c38.892554 0 70.62069-31.728136 70.62069-70.62069v-229.773113c0.511744-19.446277-14.84058-34.798601-33.775113-34.798601z"
    p-id="15183"></path>
</svg>
