<svg t="1720147866360" class="icon" viewBox="0 0 1024 1024" version="1.1" xmlns="http://www.w3.org/2000/svg" p-id="21886" xmlns:xlink="http://www.w3.org/1999/xlink" width="40" height="40"><path d="M360.727273 395.636364c18.618182 0 34.909091-16.290909 34.909091-34.909091s-16.290909-34.909091-34.909091-34.909091-34.909091 16.290909-34.909091 34.909091 16.290909 34.909091 34.909091 34.909091zM1000.727273 884.363636h-69.818182V93.090909H139.636364V23.272727c0-13.963636-9.309091-23.272727-23.272728-23.272727S93.090909 9.309091 93.090909 23.272727v69.818182H23.272727c-13.963636 0-23.272727 9.309091-23.272727 23.272727s9.309091 23.272727 23.272727 23.272728h69.818182v791.272727h791.272727v69.818182c0 13.963636 9.309091 23.272727 23.272728 23.272727s23.272727-9.309091 23.272727-23.272727v-69.818182h69.818182c13.963636 0 23.272727-9.309091 23.272727-23.272727s-9.309091-23.272727-23.272727-23.272728z m-116.363637 0H139.636364V139.636364h744.727272v744.727272z m-162.909091-139.636363l-69.818181-302.545455-169.890909 293.236364-102.4-181.527273-109.381819 190.836364H721.454545z" fill="black" p-id="21887"></path></svg>