<svg data-v-0dd9719b="" version="1.0" xmlns="http://www.w3.org/2000/svg" xmlns:xlink="http://www.w3.org/1999/xlink" width="100%" height="100%" viewBox="0 0 340.000000 250.000000" preserveAspectRatio="xMidYMid meet" color-interpolation-filters="sRGB" style="margin: auto;"> <rect data-v-0dd9719b="" x="0" y="0" width="100%" height="100%" fill="#feffff" fill-opacity="1" class="background"></rect> <rect data-v-0dd9719b="" x="0" y="0" width="100%" height="100%" fill="url(#watermark)" fill-opacity="1" class="watermarklayer"></rect> <g data-v-0dd9719b="" class="iconmbgsvg" transform="translate(113.04999923706055,68.04999923706055)"><g fill="#f24c7c" hollow-target="textFill" mask="url(#ea9eb2bf-dbd0-4791-a92d-9951e807306a)"><g><g><rect fill="#f24c7c" fill-opacity="0" stroke-width="2" x="0" y="0" width="113.89999999999995" height="113.89999999999995" class="image-rect"></rect> <svg filter="url(#colors4245620427)" x="0" y="0" width="113.89999999999995" height="113.89999999999995" filtersec="colorsf8821159351" class="image-svg-svg primary" style="overflow: visible;"><svg viewBox="20 20 200 200" xmlns="http://www.w3.org/2000/svg"><title>11</title><defs><linearGradient x1="50%" y1="100%" x2="50%" y2="0%" id="a5ee8421e-ac99-4f67-8c2d-a14e83c09f67"><stop stop-color="#F5576C" offset="0%"></stop><stop stop-color="#F093FB" offset="100%"></stop></linearGradient><filter x="-12%" y="-12%" width="124%" height="124%" filterUnits="objectBoundingBox" id="bb8832cc1-e95b-4da5-9d54-cad2332a8517"><feGaussianBlur stdDeviation="8" in="SourceGraphic"></feGaussianBlur></filter></defs><rect filter="url(#bb8832cc1-e95b-4da5-9d54-cad2332a8517)" x="1087" y="397" width="200" height="200" rx="80" transform="translate(-1067 -377)" fill="url(#a5ee8421e-ac99-4f67-8c2d-a14e83c09f67)" fill-rule="evenodd"></rect></svg></svg> <defs><filter id="colors4245620427"><feColorMatrix type="matrix" values="0 0 0 0 0.9453125  0 0 0 0 0.296875  0 0 0 0 0.484375  0 0 0 1 0" class="icon-fecolormatrix"></feColorMatrix></filter> <filter id="colorsf8821159351"><feColorMatrix type="matrix" values="0 0 0 0 0.99609375  0 0 0 0 0.99609375  0 0 0 0 0.99609375  0 0 0 1 0" class="icon-fecolormatrix"></feColorMatrix></filter> <filter id="colorsb7352047196"><feColorMatrix type="matrix" values="0 0 0 0 0  0 0 0 0 0  0 0 0 0 0  0 0 0 1 0" class="icon-fecolormatrix"></feColorMatrix></filter></defs></g></g> <g transform="translate(18.78000259399414,34.082963943481445)"><g data-gra="path-name" fill-rule="" class="tp-name"><g transform="scale(1)"><g><path d="M23.08-39.64L23.08-39.64Q23.08-40.38 23.59-40.89 24.11-41.41 24.84-41.45L24.84-41.45Q25.53-41.45 26.04-40.94 26.56-40.43 26.56-39.69L26.56-39.69Q26.61-35.92 27.15-31.51L27.15-31.51 36.02-31.51Q36.7-31.51 37.22-31.02 37.73-30.53 37.73-29.79L37.73-29.79Q37.73-29.06 37.22-28.54 36.7-28.03 36.02-28.03L36.02-28.03 27.59-28.03Q27.78-26.75 28.03-25.53L28.03-25.53Q28.22-24.45 28.37-23.42L28.37-23.42 36.02-23.42Q36.7-23.42 37.22-22.93 37.73-22.44 37.73-21.71L37.73-21.71Q37.73-20.97 37.22-20.43 36.7-19.89 36.02-19.89L36.02-19.89 29.2-19.89Q29.94-16.61 30.97-13.38L30.97-13.38 35.13-16.27Q35.77-16.71 36.46-16.66 37.14-16.61 37.58-16.07L37.58-16.07Q38.07-15.44 38.02-14.75 37.98-14.06 37.39-13.57L37.39-13.57 32.09-9.95Q34.35-3.82 37.44 0.78L37.44 0.78Q37.88 1.42 37.66 2.11 37.44 2.79 36.85 3.23L36.85 3.23Q36.21 3.68 35.52 3.5 34.84 3.33 34.4 2.74L34.4 2.74Q31.16-1.81 28.96-7.74L28.96-7.74 20.24-1.72Q19.65-1.32 18.96-1.37 18.28-1.42 17.84-1.96L17.84-1.96Q17.35-2.55 17.39-3.26 17.44-3.97 18.03-4.41L18.03-4.41 27.73-11.17Q26.41-15.48 25.43-19.89L25.43-19.89 19.21-19.89Q18.47-19.89 17.96-20.43 17.44-20.97 17.44-21.71L17.44-21.71Q17.44-22.44 17.96-22.93 18.47-23.42 19.21-23.42L19.21-23.42 24.7-23.42Q24.3-25.68 24.01-28.03L24.01-28.03 19.21-28.03Q18.47-28.03 17.96-28.54 17.44-29.06 17.44-29.79L17.44-29.79Q17.44-30.53 17.96-31.02 18.47-31.51 19.21-31.51L19.21-31.51 23.62-31.51Q23.13-35.87 23.08-39.64ZM15.19 1.67L15.19 1.67Q15.53 2.3 15.31 2.99 15.09 3.68 14.46 4.07L14.46 4.07Q13.82 4.41 13.13 4.21 12.45 4.02 12.1 3.38L12.1 3.38Q9.9-0.69 9.11-5.19L9.11-5.19Q8.43-9.36 8.43-13.38L8.43-13.38 4.26-13.38Q3.58-13.38 3.06-13.92 2.55-14.46 2.55-15.19L2.55-15.19Q2.55-15.88 3.06-16.39 3.58-16.91 4.26-16.91L4.26-16.91 8.43-16.91 8.43-24.01 5.54-24.01Q4.8-24.01 4.31-24.52 3.82-25.04 3.82-25.77L3.82-25.77Q3.82-26.46 4.31-26.97 4.8-27.49 5.54-27.49L5.54-27.49 14.8-27.49Q15.53-27.49 16.02-26.97 16.51-26.46 16.51-25.77L16.51-25.77Q16.51-25.04 16.02-24.52 15.53-24.01 14.8-24.01L14.8-24.01 11.91-24.01 11.91-16.91 16.07-16.91Q16.76-16.91 17.25-16.39 17.74-15.88 17.74-15.19L17.74-15.19Q17.74-14.46 17.25-13.92 16.76-13.38 16.07-13.38L16.07-13.38 11.91-13.38Q11.91-9.55 12.54-5.88L12.54-5.88Q13.28-1.81 15.19 1.67ZM3.87-34.79L3.87-34.79 6.13-40.28Q6.47-40.96 7.11-41.21 7.74-41.45 8.43-41.21L8.43-41.21Q9.11-40.91 9.36-40.25 9.6-39.59 9.36-38.91L9.36-38.91 8.04-35.82 14.9-35.82Q15.63-35.82 16.12-35.33 16.61-34.84 16.61-34.1L16.61-34.1Q16.61-33.37 16.12-32.85 15.63-32.34 14.9-32.34L14.9-32.34 5.39-32.34Q4.41-32.34 3.97-33.12 3.53-33.91 3.87-34.79ZM34.5-38.61L34.5-38.61 34.5-35.48Q34.5-34.74 33.98-34.25 33.47-33.76 32.73-33.76L32.73-33.76Q32.05-33.76 31.53-34.25 31.02-34.74 31.02-35.48L31.02-35.48 31.02-38.61Q31.02-39.3 31.53-39.84 32.05-40.38 32.73-40.38L32.73-40.38Q33.47-40.38 33.98-39.84 34.5-39.3 34.5-38.61ZM78.89-37.78L78.89-37.78 78.89 2.16Q78.89 2.84 78.38 3.36 77.86 3.87 77.13 3.87L77.13 3.87 47.73 3.87Q46.99 3.87 46.5 3.36 46.01 2.84 46.01 2.16L46.01 2.16 46.01-37.78Q46.01-38.51 46.5-39 46.99-39.49 47.73-39.49L47.73-39.49 77.13-39.49Q77.86-39.49 78.38-39 78.89-38.51 78.89-37.78ZM49.49-36.02L49.49 0.34 75.41 0.34 75.41-36.02 49.49-36.02ZM54.49-30.43L54.49-30.43 56.4-33.91Q56.74-34.59 57.43-34.77 58.11-34.94 58.75-34.59L58.75-34.59Q59.39-34.2 59.58-33.54 59.78-32.88 59.44-32.24L59.44-32.24 58.95-31.31 68.16-31.31Q68.89-31.31 69.38-30.8 69.87-30.28 69.87-29.6L69.87-29.6Q69.87-29.16 69.63-28.71L69.63-28.71Q67.67-24.75 64.78-21.95L64.78-21.95Q64.83-21.9 64.92-21.85 65.02-21.8 65.12-21.76L65.12-21.76Q68.65-19.8 72.86-18.47L72.86-18.47Q73.55-18.28 73.89-17.66 74.23-17.05 74.04-16.32L74.04-16.32Q73.79-15.58 73.18-15.26 72.57-14.95 71.83-15.14L71.83-15.14Q67.28-16.61 63.45-18.67L63.45-18.67 61.94-19.5Q57.77-16.56 53.02-15.14L53.02-15.14Q52.33-14.95 51.72-15.26 51.11-15.58 50.86-16.32L50.86-16.32Q50.67-17.05 50.98-17.66 51.3-18.28 51.99-18.47L51.99-18.47Q55.61-19.55 58.8-21.61L58.8-21.61Q57.43-22.59 56.06-23.81L56.06-23.81Q55.52-24.3 55.44-24.99 55.37-25.68 55.86-26.26L55.86-26.26Q56.35-26.8 57.01-26.88 57.67-26.95 58.26-26.46L58.26-26.46Q59.93-25.04 61.69-23.86L61.69-23.86Q63.6-25.58 65.17-27.83L65.17-27.83 55.96-27.83Q55.52-27.83 55.13-28.08L55.13-28.08Q54.49-28.42 54.29-29.11 54.1-29.79 54.49-30.43ZM67.03-1.67L67.03-1.67 56.01-6.47Q55.32-6.81 55.05-7.45 54.78-8.09 55.08-8.77L55.08-8.77Q55.37-9.46 56.01-9.68 56.64-9.9 57.33-9.65L57.33-9.65 68.45-4.9Q69.14-4.56 69.36-3.9 69.58-3.23 69.34-2.6L69.34-2.6Q69.04-1.91 68.38-1.67 67.72-1.42 67.03-1.67ZM66-9.55L66-9.55 58.85-12.74Q58.16-13.08 57.92-13.74 57.67-14.41 57.97-15.04L57.97-15.04Q58.31-15.73 58.95-15.97 59.58-16.22 60.27-15.93L60.27-15.93 67.47-12.69Q68.11-12.4 68.36-11.74 68.6-11.07 68.31-10.39L68.31-10.39Q68.01-9.75 67.35-9.51 66.69-9.26 66-9.55Z" transform="translate(-2.549999952316284, 41.45000076293945)"></path></g> <!----> <!----> <!----> <!----> <!----> <!----> <!----></g></g> <!----></g></g></g><defs v-gra="od"></defs><mask id="ea9eb2bf-dbd0-4791-a92d-9951e807306a"><g fill="white"><g><rect fill-opacity="0" stroke-width="2" x="0" y="0" width="113.89999999999995" height="113.89999999999995" class="image-rect"></rect> <svg x="0" y="0" width="113.89999999999995" height="113.89999999999995" class="image-svg-svg primary" style="overflow: visible;" filter="url(#colorsf8821159351)"><svg viewBox="20 20 200 200" xmlns="http://www.w3.org/2000/svg"><title>11</title><defs><linearGradient x1="50%" y1="100%" x2="50%" y2="0%" id="a5ee8421e-ac99-4f67-8c2d-a14e83c09f67"><stop stop-color="#F5576C" offset="0%"></stop><stop stop-color="#F093FB" offset="100%"></stop></linearGradient></defs><rect x="1087" y="397" width="200" height="200" rx="80" transform="translate(-1067 -377)" fill-rule="evenodd"></rect></svg></svg> <defs>  </defs></g></g> <g transform="translate(18.78000259399414,34.082963943481445)" fill="black"><g data-gra="path-name" fill-rule="" class="tp-name"><g transform="scale(1)"><g><path d="M23.08-39.64L23.08-39.64Q23.08-40.38 23.59-40.89 24.11-41.41 24.84-41.45L24.84-41.45Q25.53-41.45 26.04-40.94 26.56-40.43 26.56-39.69L26.56-39.69Q26.61-35.92 27.15-31.51L27.15-31.51 36.02-31.51Q36.7-31.51 37.22-31.02 37.73-30.53 37.73-29.79L37.73-29.79Q37.73-29.06 37.22-28.54 36.7-28.03 36.02-28.03L36.02-28.03 27.59-28.03Q27.78-26.75 28.03-25.53L28.03-25.53Q28.22-24.45 28.37-23.42L28.37-23.42 36.02-23.42Q36.7-23.42 37.22-22.93 37.73-22.44 37.73-21.71L37.73-21.71Q37.73-20.97 37.22-20.43 36.7-19.89 36.02-19.89L36.02-19.89 29.2-19.89Q29.94-16.61 30.97-13.38L30.97-13.38 35.13-16.27Q35.77-16.71 36.46-16.66 37.14-16.61 37.58-16.07L37.58-16.07Q38.07-15.44 38.02-14.75 37.98-14.06 37.39-13.57L37.39-13.57 32.09-9.95Q34.35-3.82 37.44 0.78L37.44 0.78Q37.88 1.42 37.66 2.11 37.44 2.79 36.85 3.23L36.85 3.23Q36.21 3.68 35.52 3.5 34.84 3.33 34.4 2.74L34.4 2.74Q31.16-1.81 28.96-7.74L28.96-7.74 20.24-1.72Q19.65-1.32 18.96-1.37 18.28-1.42 17.84-1.96L17.84-1.96Q17.35-2.55 17.39-3.26 17.44-3.97 18.03-4.41L18.03-4.41 27.73-11.17Q26.41-15.48 25.43-19.89L25.43-19.89 19.21-19.89Q18.47-19.89 17.96-20.43 17.44-20.97 17.44-21.71L17.44-21.71Q17.44-22.44 17.96-22.93 18.47-23.42 19.21-23.42L19.21-23.42 24.7-23.42Q24.3-25.68 24.01-28.03L24.01-28.03 19.21-28.03Q18.47-28.03 17.96-28.54 17.44-29.06 17.44-29.79L17.44-29.79Q17.44-30.53 17.96-31.02 18.47-31.51 19.21-31.51L19.21-31.51 23.62-31.51Q23.13-35.87 23.08-39.64ZM15.19 1.67L15.19 1.67Q15.53 2.3 15.31 2.99 15.09 3.68 14.46 4.07L14.46 4.07Q13.82 4.41 13.13 4.21 12.45 4.02 12.1 3.38L12.1 3.38Q9.9-0.69 9.11-5.19L9.11-5.19Q8.43-9.36 8.43-13.38L8.43-13.38 4.26-13.38Q3.58-13.38 3.06-13.92 2.55-14.46 2.55-15.19L2.55-15.19Q2.55-15.88 3.06-16.39 3.58-16.91 4.26-16.91L4.26-16.91 8.43-16.91 8.43-24.01 5.54-24.01Q4.8-24.01 4.31-24.52 3.82-25.04 3.82-25.77L3.82-25.77Q3.82-26.46 4.31-26.97 4.8-27.49 5.54-27.49L5.54-27.49 14.8-27.49Q15.53-27.49 16.02-26.97 16.51-26.46 16.51-25.77L16.51-25.77Q16.51-25.04 16.02-24.52 15.53-24.01 14.8-24.01L14.8-24.01 11.91-24.01 11.91-16.91 16.07-16.91Q16.76-16.91 17.25-16.39 17.74-15.88 17.74-15.19L17.74-15.19Q17.74-14.46 17.25-13.92 16.76-13.38 16.07-13.38L16.07-13.38 11.91-13.38Q11.91-9.55 12.54-5.88L12.54-5.88Q13.28-1.81 15.19 1.67ZM3.87-34.79L3.87-34.79 6.13-40.28Q6.47-40.96 7.11-41.21 7.74-41.45 8.43-41.21L8.43-41.21Q9.11-40.91 9.36-40.25 9.6-39.59 9.36-38.91L9.36-38.91 8.04-35.82 14.9-35.82Q15.63-35.82 16.12-35.33 16.61-34.84 16.61-34.1L16.61-34.1Q16.61-33.37 16.12-32.85 15.63-32.34 14.9-32.34L14.9-32.34 5.39-32.34Q4.41-32.34 3.97-33.12 3.53-33.91 3.87-34.79ZM34.5-38.61L34.5-38.61 34.5-35.48Q34.5-34.74 33.98-34.25 33.47-33.76 32.73-33.76L32.73-33.76Q32.05-33.76 31.53-34.25 31.02-34.74 31.02-35.48L31.02-35.48 31.02-38.61Q31.02-39.3 31.53-39.84 32.05-40.38 32.73-40.38L32.73-40.38Q33.47-40.38 33.98-39.84 34.5-39.3 34.5-38.61ZM78.89-37.78L78.89-37.78 78.89 2.16Q78.89 2.84 78.38 3.36 77.86 3.87 77.13 3.87L77.13 3.87 47.73 3.87Q46.99 3.87 46.5 3.36 46.01 2.84 46.01 2.16L46.01 2.16 46.01-37.78Q46.01-38.51 46.5-39 46.99-39.49 47.73-39.49L47.73-39.49 77.13-39.49Q77.86-39.49 78.38-39 78.89-38.51 78.89-37.78ZM49.49-36.02L49.49 0.34 75.41 0.34 75.41-36.02 49.49-36.02ZM54.49-30.43L54.49-30.43 56.4-33.91Q56.74-34.59 57.43-34.77 58.11-34.94 58.75-34.59L58.75-34.59Q59.39-34.2 59.58-33.54 59.78-32.88 59.44-32.24L59.44-32.24 58.95-31.31 68.16-31.31Q68.89-31.31 69.38-30.8 69.87-30.28 69.87-29.6L69.87-29.6Q69.87-29.16 69.63-28.71L69.63-28.71Q67.67-24.75 64.78-21.95L64.78-21.95Q64.83-21.9 64.92-21.85 65.02-21.8 65.12-21.76L65.12-21.76Q68.65-19.8 72.86-18.47L72.86-18.47Q73.55-18.28 73.89-17.66 74.23-17.05 74.04-16.32L74.04-16.32Q73.79-15.58 73.18-15.26 72.57-14.95 71.83-15.14L71.83-15.14Q67.28-16.61 63.45-18.67L63.45-18.67 61.94-19.5Q57.77-16.56 53.02-15.14L53.02-15.14Q52.33-14.95 51.72-15.26 51.11-15.58 50.86-16.32L50.86-16.32Q50.67-17.05 50.98-17.66 51.3-18.28 51.99-18.47L51.99-18.47Q55.61-19.55 58.8-21.61L58.8-21.61Q57.43-22.59 56.06-23.81L56.06-23.81Q55.52-24.3 55.44-24.99 55.37-25.68 55.86-26.26L55.86-26.26Q56.35-26.8 57.01-26.88 57.67-26.95 58.26-26.46L58.26-26.46Q59.93-25.04 61.69-23.86L61.69-23.86Q63.6-25.58 65.17-27.83L65.17-27.83 55.96-27.83Q55.52-27.83 55.13-28.08L55.13-28.08Q54.49-28.42 54.29-29.11 54.1-29.79 54.49-30.43ZM67.03-1.67L67.03-1.67 56.01-6.47Q55.32-6.81 55.05-7.45 54.78-8.09 55.08-8.77L55.08-8.77Q55.37-9.46 56.01-9.68 56.64-9.9 57.33-9.65L57.33-9.65 68.45-4.9Q69.14-4.56 69.36-3.9 69.58-3.23 69.34-2.6L69.34-2.6Q69.04-1.91 68.38-1.67 67.72-1.42 67.03-1.67ZM66-9.55L66-9.55 58.85-12.74Q58.16-13.08 57.92-13.74 57.67-14.41 57.97-15.04L57.97-15.04Q58.31-15.73 58.95-15.97 59.58-16.22 60.27-15.93L60.27-15.93 67.47-12.69Q68.11-12.4 68.36-11.74 68.6-11.07 68.31-10.39L68.31-10.39Q68.01-9.75 67.35-9.51 66.69-9.26 66-9.55Z" transform="translate(-2.549999952316284, 41.45000076293945)"></path></g>       </g></g> </g></mask></svg>