<svg
          t="1720249255227"
          className="icon"
          viewBox="0 0 1024 1024"
          version="1.1"
          xmlns="http://www.w3.org/2000/svg"
          p-id="6594"
          xmlns:xlink="http://www.w3.org/1999/xlink"
          width="40"
          height="40">
          <path
            d="M826.368 1024H197.632C88.576 1024 0 935.424 0 826.368V197.632C0 88.576 88.576 0 197.632 0h628.736C935.424 0 1024 88.576 1024 197.632v628.736c0 109.056-88.576 197.632-197.632 197.632zM197.632 53.76c-79.36 0-143.872 64.512-143.872 143.872v628.736c0 79.36 64.512 143.872 143.872 143.872h628.736c79.36 0 143.872-64.512 143.872-143.872V197.632c0-79.36-64.512-143.872-143.872-143.872H197.632z"
            fill="#333333"
            p-id="6595"></path>
          <path
            d="M348.16 477.184c-74.24 0-134.656-60.416-134.656-134.656S273.92 207.872 348.16 207.872s134.656 60.416 134.656 134.656S422.4 477.184 348.16 477.184z m0-215.552c-44.544 0-80.896 36.352-80.896 80.896S303.616 423.424 348.16 423.424s80.896-36.352 80.896-80.896S392.704 261.632 348.16 261.632zM176.64 777.216c-7.168 0-14.336-2.56-19.456-8.192-10.24-10.752-9.728-27.648 1.024-37.888l188.416-179.712c5.12-5.12 12.288-7.68 19.456-7.68s13.824 3.072 18.944 8.192l128.512 135.68 329.216-322.048c10.752-10.24 27.648-10.24 37.888 0.512s10.24 27.648-0.512 37.888l-348.672 340.992c-5.12 5.12-11.776 8.192-19.456 7.68-7.168 0-14.336-3.072-18.944-8.192L364.032 609.28l-168.96 160.768c-5.12 5.12-11.776 7.168-18.432 7.168z"
            fill="#333333"
            p-id="6596"></path>
          <path
            d="M162.816 790.528c-7.168 0-14.336-2.56-19.456-8.192-10.24-10.752-9.728-27.648 1.024-37.888l13.824-12.8c10.752-10.24 27.648-9.728 37.888 1.024s9.728 27.648-1.024 37.888l-13.824 12.8c-5.12 4.608-11.776 7.168-18.432 7.168z"
            fill="#333333"
            p-id="6597"></path>
        </svg>